# xmcd
#
# Track frame offsets:
#	150
#	15813
#	43810
#	55293
#	66621
#	82024
#	96950
#	107307
#	121757
#	141497
#	155749
#	164488
#	179310
#	199451
#	222994
#	246669
#	257431
#	266080
#	280134
#	290160
#
# Disc length: 4137 seconds
#
# Revision: 1
# Processed by: cddbd v1.5.1PL0 Copyright (c) Steve Scherf et al.
# Submitted via: CDex 1.50Beta5
#
DISCID=3c102714
DTITLE=Various Artist - Love Stories IV
DYEAR=2003
DGENRE=Soundtrack
TTITLE0=（警部補・古畑任三郎）/主題　Furuhata's Theme
TTITLE1=（白線流し）/My Own Life
TTITLE2=（おいしい関係）/Amour
TTITLE3=（彼女たちの結婚）/Kiss
TTITLE4=（ひとつ屋根の下２）/Four Seasons
TTITLE5=（総理と呼ばないで）/Farewell Mr Premier
TTITLE6=（ギフトGift）/Space
TTITLE7=（ビーチボーイズ）/Sing A Love Song For Me (Ocean Version)
TTITLE8=（きらきらひかる）/何も語らぬ人々
TTITLE9=（Days）/Mack The Knife - PAT Boone
TTITLE10=（眠れる森）/眠れる森〜Sleeping Forest〜
TTITLE11=（リップスティック）/End Title
TTITLE12=（氷の世界）/The Color Of Eternal Love
TTITLE13=（危険な関係）/激情
TTITLE14=（ラブレボリューション）/Classic〜Way To Love〜
TTITLE15=（ロング・ラブレター〜漂流教室）/ロング・ラブレター
TTITLE16=（空から降る一億の星）/Resolver
TTITLE17=（いつもふたりで）/Hold Out Hope
TTITLE18=（Drコトー診療所）/ふがらっさ
TTITLE19=（北の国から）/北の国から／さだまさし　−遙かなる大地より〜蛍のテーマ−
EXTD=
EXTT0=
EXTT1=
EXTT2=
EXTT3=
EXTT4=
EXTT5=
EXTT6=
EXTT7=
EXTT8=
EXTT9=
EXTT10=
EXTT11=
EXTT12=
EXTT13=
EXTT14=
EXTT15=
EXTT16=
EXTT17=
EXTT18=
EXTT19=
PLAYORDER=
